<svg xmlns="http://www.w3.org/2000/svg">

<symbol viewBox="0 0 10 10" id="s_plus" fill-rule="evenodd">    
    <path d="M4.001,4l-4.001,0l0,2l4.001,0l-0,4l2,0l-0,-4l3.999,0l0,-2l-3.999,0l-0,-4l-2,0l-0,4Z" />
</symbol>
<symbol viewBox="0 0 10 10" id="s_minus" fill-rule="evenodd">    
    <rect x="0" y="4" width="10" height="2" />
</symbol>

<symbol viewBox="0 0 9 18" id="s_fb" fill-rule="evenodd">
    <path d="M2.231,18l3.625,0l0,-9.076l2.528,-0l0.27,-3.04l-2.798,0l0,-1.73c0,-0.717 0.144,-1 0.836,-1l1.962,-0l0,-3.154l-2.51,0c-2.696,0 -3.913,1.188 -3.913,3.461l0,2.423l-1.885,0l-0,3.078l1.885,-0l0,9.038Z" />
</symbol>
<symbol viewBox="0 0 18 18" id="s_insta" fill-rule="evenodd">
    <path d="M9,-0c-2.444,-0 -2.751,0.011 -3.71,0.054c-0.959,0.044 -1.613,0.196 -2.185,0.419c-0.592,0.229 -1.094,0.537 -1.594,1.037c-0.501,0.502 -0.809,1.003 -1.038,1.595c-0.223,0.572 -0.375,1.227 -0.418,2.184c-0.044,0.96 -0.055,1.267 -0.055,3.711c0,2.445 0.011,2.752 0.055,3.711c0.043,0.958 0.195,1.612 0.418,2.184c0.229,0.592 0.537,1.094 1.038,1.595c0.5,0.5 1.002,0.808 1.594,1.038c0.572,0.222 1.226,0.374 2.185,0.418c0.959,0.044 1.266,0.054 3.71,0.054c2.444,0 2.751,-0.01 3.71,-0.054c0.959,-0.044 1.613,-0.196 2.185,-0.418c0.592,-0.23 1.094,-0.538 1.594,-1.038c0.501,-0.501 0.809,-1.003 1.038,-1.595c0.223,-0.572 0.375,-1.226 0.418,-2.184c0.044,-0.959 0.055,-1.266 0.055,-3.711c0,-2.444 -0.011,-2.751 -0.055,-3.711c-0.043,-0.957 -0.195,-1.612 -0.418,-2.184c-0.229,-0.592 -0.537,-1.093 -1.038,-1.595c-0.5,-0.5 -1.002,-0.808 -1.594,-1.037c-0.572,-0.223 -1.226,-0.375 -2.185,-0.419c-0.959,-0.043 -1.266,-0.054 -3.71,-0.054Zm0,1.622c2.403,-0 2.687,0.009 3.637,0.052c0.877,0.041 1.354,0.187 1.67,0.31c0.42,0.163 0.72,0.359 1.036,0.673c0.314,0.316 0.51,0.615 0.673,1.035c0.123,0.317 0.27,0.794 0.31,1.671c0.043,0.949 0.052,1.234 0.052,3.637c0,2.404 -0.009,2.688 -0.052,3.637c-0.04,0.878 -0.187,1.355 -0.31,1.671c-0.163,0.42 -0.359,0.72 -0.673,1.035c-0.316,0.315 -0.616,0.51 -1.036,0.674c-0.316,0.123 -0.793,0.269 -1.67,0.31c-0.95,0.042 -1.234,0.051 -3.637,0.051c-2.403,0 -2.687,-0.009 -3.637,-0.051c-0.877,-0.041 -1.354,-0.187 -1.67,-0.31c-0.42,-0.164 -0.72,-0.359 -1.036,-0.674c-0.314,-0.315 -0.51,-0.615 -0.673,-1.035c-0.123,-0.316 -0.27,-0.793 -0.31,-1.671c-0.043,-0.949 -0.052,-1.233 -0.052,-3.637c-0,-2.403 0.009,-2.688 0.052,-3.637c0.04,-0.877 0.187,-1.354 0.31,-1.671c0.163,-0.42 0.359,-0.719 0.673,-1.035c0.316,-0.314 0.616,-0.51 1.036,-0.673c0.316,-0.123 0.793,-0.269 1.67,-0.31c0.95,-0.043 1.234,-0.052 3.637,-0.052Zm0,2.756c-2.553,0 -4.622,2.069 -4.622,4.622c0,2.553 2.069,4.622 4.622,4.622c2.553,0 4.622,-2.069 4.622,-4.622c-0,-2.553 -2.069,-4.622 -4.622,-4.622Zm0,7.622c-1.657,0 -3,-1.343 -3,-3c0,-1.657 1.343,-3 3,-3c1.657,0 3,1.343 3,3c0,1.657 -1.343,3 -3,3Zm5.884,-7.804c0,0.597 -0.484,1.08 -1.079,1.08c-0.597,0 -1.081,-0.483 -1.081,-1.08c0,-0.596 0.484,-1.08 1.081,-1.08c0.595,0 1.079,0.484 1.079,1.08Z" />
</symbol>
<symbol viewBox="0 0 26 18" id="s_yt" fill-rule="evenodd">
    <path d="M10.429,12.857l-0,-7.714l6.68,3.857l-6.68,3.857Zm14.891,-10.046c-0.295,-1.106 -1.166,-1.978 -2.273,-2.273c-2.006,-0.538 -10.047,-0.538 -10.047,-0.538c0,0 -8.041,0 -10.046,0.537c-1.107,0.296 -1.978,1.168 -2.274,2.273c-0.537,2.006 -0.537,6.19 -0.537,6.19c-0,-0 -0,4.184 0.537,6.19c0.295,1.106 1.167,1.977 2.273,2.273c2.006,0.537 10.047,0.537 10.047,0.537c-0,0 8.041,0 10.046,-0.537c1.108,-0.296 1.979,-1.167 2.274,-2.273c0.537,-2.006 0.537,-6.19 0.537,-6.19c0,-0 0,-4.184 -0.537,-6.189" />
</symbol>

<symbol viewBox="0 0 100 100" id="s_enve" fill-rule="evenodd">    
    <path d="M87.736,8.221l-75.472,0c-2.497,0.014 -4.889,1.013 -6.655,2.779c-1.766,1.766 -2.764,4.157 -2.779,6.655l0,64.69c0.015,2.497 1.013,4.889 2.779,6.655c1.766,1.766 4.158,2.765 6.655,2.779l75.472,-0c2.497,-0.014 4.889,-1.013 6.655,-2.779c1.766,-1.766 2.765,-4.158 2.779,-6.655l-0,-64.69c-0.014,-2.498 -1.013,-4.889 -2.779,-6.655c-1.766,-1.766 -4.158,-2.765 -6.655,-2.779Zm-0,75.472l-75.472,-0c-0.357,-0 -0.7,-0.142 -0.953,-0.395c-0.252,-0.253 -0.394,-0.596 -0.394,-0.953l-0,-47.385l37.25,18.652c0.569,0.284 1.197,0.433 1.833,0.433c0.636,-0 1.264,-0.149 1.833,-0.433l37.25,-18.652l0,47.385c0,0.357 -0.141,0.7 -0.394,0.953c-0.253,0.253 -0.596,0.395 -0.953,0.395Zm-75.472,-67.386l75.472,0c0.357,0 0.7,0.142 0.953,0.395c0.253,0.253 0.394,0.596 0.394,0.953l0,8.302l-39.083,19.515l-39.083,-19.515l-0,-8.302c-0,-0.357 0.142,-0.7 0.394,-0.953c0.253,-0.253 0.596,-0.395 0.953,-0.395Z" />
</symbol>
<symbol viewBox="0 0 100 100" id="s_build" fill-rule="evenodd">    
    <path d="M83.693,89.083l-2.696,0l0,-82.209c-0.014,-1.068 -0.444,-2.089 -1.199,-2.844c-0.756,-0.755 -1.776,-1.186 -2.844,-1.2l-53.908,0c-1.068,0.014 -2.088,0.445 -2.844,1.2c-0.755,0.755 -1.185,1.776 -1.199,2.844l-0,82.209l-2.696,0c-1.072,0 -2.1,0.426 -2.858,1.185c-0.759,0.758 -1.185,1.786 -1.185,2.858c0,1.073 0.426,2.101 1.185,2.859c0.758,0.759 1.786,1.185 2.858,1.185l67.386,-0c1.072,-0 2.1,-0.426 2.858,-1.185c0.759,-0.758 1.185,-1.786 1.185,-2.859c-0,-1.072 -0.426,-2.1 -1.185,-2.858c-0.758,-0.759 -1.786,-1.185 -2.858,-1.185Zm-10.782,0l-28.302,0l0,-12.129c0,-0.715 -0.284,-1.4 -0.789,-1.906c-0.506,-0.505 -1.191,-0.789 -1.906,-0.789l-5.391,-0c-0.715,-0 -1.401,0.284 -1.906,0.789c-0.505,0.506 -0.789,1.191 -0.789,1.906l-0,12.129l-6.739,0l0,-78.166l45.822,-0l-0,78.166Zm-30.997,-33.692l-5.391,-0c-1.489,-0 -2.695,1.207 -2.695,2.695l-0,5.391c-0,1.488 1.206,2.695 2.695,2.695l5.391,0c1.488,0 2.695,-1.207 2.695,-2.695l0,-5.391c0,-1.488 -1.207,-2.695 -2.695,-2.695Zm21.563,-0l-5.391,-0c-1.488,-0 -2.695,1.207 -2.695,2.695l-0,5.391c-0,1.488 1.207,2.695 2.695,2.695l5.391,0c1.488,0 2.695,-1.207 2.695,-2.695l0,-5.391c0,-1.488 -1.207,-2.695 -2.695,-2.695Zm-21.563,-18.868l-5.391,-0c-1.489,-0 -2.695,1.207 -2.695,2.695l-0,5.391c-0,1.489 1.206,2.696 2.695,2.696l5.391,-0c1.488,-0 2.695,-1.207 2.695,-2.696l0,-5.391c0,-1.488 -1.207,-2.695 -2.695,-2.695Zm21.563,-0l-5.391,-0c-1.488,-0 -2.695,1.207 -2.695,2.695l-0,5.391c-0,1.489 1.207,2.696 2.695,2.696l5.391,-0c1.488,-0 2.695,-1.207 2.695,-2.696l0,-5.391c0,-1.488 -1.207,-2.695 -2.695,-2.695Zm-21.563,-18.868l-5.391,0c-1.489,0 -2.695,1.207 -2.695,2.696l-0,5.39c-0,1.489 1.206,2.696 2.695,2.696l5.391,-0c1.488,-0 2.695,-1.207 2.695,-2.696l0,-5.39c0,-1.489 -1.207,-2.696 -2.695,-2.696Zm21.563,0l-5.391,0c-1.488,0 -2.695,1.207 -2.695,2.696l-0,5.39c-0,1.489 1.207,2.696 2.695,2.696l5.391,-0c1.488,-0 2.695,-1.207 2.695,-2.696l0,-5.39c0,-1.489 -1.207,-2.696 -2.695,-2.696Z" />
</symbol>
<symbol viewBox="0 0 100 100" id="s_marker" fill-rule="evenodd">    
    <path d="M50,100c-0.792,0.007 -1.567,-0.238 -2.21,-0.701c-1.617,-1.024 -39.569,-26.523 -39.569,-57.52c0,-11.081 4.402,-21.707 12.237,-29.542c7.835,-7.835 18.462,-12.237 29.542,-12.237c11.08,-0 21.707,4.402 29.542,12.237c7.835,7.835 12.237,18.461 12.237,29.542c-0,30.997 -37.736,56.496 -39.569,57.52c-0.643,0.463 -1.418,0.708 -2.21,0.701Zm0,-91.644c-8.898,-0.029 -17.444,3.475 -23.761,9.741c-6.317,6.267 -9.889,14.784 -9.932,23.682c0,22.695 25.822,43.45 33.693,49.218c7.871,-5.768 33.693,-26.523 33.693,-49.218c-0.043,-8.898 -3.616,-17.415 -9.932,-23.682c-6.317,-6.266 -14.863,-9.77 -23.761,-9.741Zm0,45.822c-2.932,-0 -5.798,-0.87 -8.236,-2.499c-2.438,-1.628 -4.338,-3.944 -5.46,-6.653c-1.122,-2.708 -1.416,-5.689 -0.844,-8.565c0.572,-2.876 1.984,-5.517 4.058,-7.59c2.073,-2.074 4.714,-3.486 7.59,-4.058c2.876,-0.572 5.856,-0.278 8.565,0.844c2.709,1.122 5.025,3.022 6.653,5.46c1.629,2.438 2.499,5.304 2.499,8.236c-0,3.932 -1.562,7.703 -4.343,10.483c-2.78,2.78 -6.55,4.342 -10.482,4.342Zm0,-21.563c-1.333,-0 -2.636,0.395 -3.744,1.135c-1.108,0.741 -1.971,1.793 -2.481,3.025c-0.511,1.231 -0.644,2.586 -0.384,3.893c0.26,1.307 0.902,2.508 1.844,3.45c0.942,0.942 2.143,1.584 3.45,1.844c1.307,0.26 2.662,0.127 3.894,-0.383c1.231,-0.51 2.284,-1.374 3.024,-2.482c0.74,-1.108 1.136,-2.411 1.136,-3.744c-0,-1.787 -0.71,-3.501 -1.974,-4.765c-1.264,-1.263 -2.978,-1.973 -4.765,-1.973Z" />
</symbol>
<symbol viewBox="0 0 100 100" id="s_phone" fill-rule="evenodd">    
    <path d="M84.721,97.143l-1.24,-0c-13.969,-1.52 -27.389,-6.283 -39.192,-13.909c-10.964,-6.982 -20.272,-16.273 -27.277,-27.223c-7.643,-11.833 -12.407,-25.293 -13.908,-39.299c-0.172,-1.671 -0.003,-3.359 0.498,-4.962c0.5,-1.603 1.321,-3.088 2.413,-4.364c1.061,-1.294 2.372,-2.361 3.853,-3.139c1.482,-0.778 3.104,-1.25 4.772,-1.39l14.016,0c3.036,0.003 5.97,1.092 8.274,3.069c2.303,1.977 3.824,4.713 4.287,7.713c0.512,3.854 1.47,7.635 2.857,11.267c0.843,2.282 1.017,4.758 0.502,7.136c-0.516,2.378 -1.7,4.559 -3.413,6.287l-3.289,3.288c5.178,8.174 12.123,15.082 20.324,20.216l3.288,-3.235c1.728,-1.713 3.91,-2.897 6.287,-3.413c2.378,-0.515 4.854,-0.341 7.136,0.502c3.636,1.374 7.416,2.332 11.267,2.857c3.051,0.459 5.83,2.015 7.816,4.378c1.985,2.363 3.04,5.368 2.966,8.453l-0,12.937c-0,3.365 -1.333,6.593 -3.708,8.978c-2.374,2.384 -5.596,3.731 -8.961,3.745l0.432,0.108Zm-56.065,-86.253l-12.884,-0c-0.633,0.042 -1.25,0.211 -1.815,0.498c-0.566,0.288 -1.067,0.686 -1.473,1.173c-0.396,0.455 -0.696,0.986 -0.881,1.561c-0.185,0.574 -0.253,1.18 -0.198,1.781c1.308,12.705 5.573,24.927 12.453,35.687c6.343,9.955 14.789,18.401 24.744,24.744c10.767,6.953 23.003,11.309 35.741,12.722c0.663,0.038 1.326,-0.063 1.947,-0.294c0.622,-0.233 1.189,-0.591 1.665,-1.053c0.858,-0.88 1.342,-2.059 1.348,-3.289l-0,-12.884c0.024,-1.134 -0.368,-2.238 -1.104,-3.103c-0.735,-0.864 -1.762,-1.429 -2.885,-1.587c-4.454,-0.599 -8.828,-1.683 -13.046,-3.234c-0.831,-0.311 -1.733,-0.38 -2.601,-0.198c-0.869,0.181 -1.668,0.605 -2.305,1.222l-5.391,5.391c-0.631,0.615 -1.444,1.011 -2.318,1.128c-0.875,0.116 -1.763,-0.053 -2.533,-0.481c-11.503,-6.501 -21.025,-16.003 -27.547,-27.493c-0.447,-0.766 -0.626,-1.659 -0.509,-2.537c0.118,-0.878 0.524,-1.693 1.155,-2.315l5.391,-5.391c0.618,-0.625 1.044,-1.415 1.225,-2.275c0.182,-0.861 0.112,-1.755 -0.201,-2.577c-1.556,-4.215 -2.641,-8.591 -3.234,-13.045c-0.134,-1.158 -0.694,-2.224 -1.571,-2.992c-0.877,-0.767 -2.008,-1.18 -3.173,-1.159Z" />
</symbol>


</svg>